<svg width="64" height="64" viewBox="0 0 64 64" fill="none" xmlns="http://www.w3.org/2000/svg">
<path fill-rule="evenodd" clip-rule="evenodd" d="M32 64C49.6733 64 64 49.6733 64 32C64 14.3267 49.6733 0 32 0C14.3267 0 0 14.3267 0 32C0 49.6733 14.3267 64 32 64ZM44.061 31.9395L34.5151 22.3936C33.9292 21.8076 32.9795 21.8076 32.3936 22.3936C31.8076 22.979 31.8076 23.9287 32.3936 24.5146L39.3789 31.5H19.9785V34.5H39.3789L32.3936 41.4854C31.8076 42.0713 31.8076 43.021 32.3936 43.6064C32.9795 44.1924 33.9292 44.1924 34.5151 43.6064L44.061 34.0605C44.6465 33.4751 44.6465 32.5249 44.061 31.9395Z" fill="black"/>
</svg>
